<svg width="418" height="375" viewBox="0 0 418 375" fill="none" xmlns="http://www.w3.org/2000/svg">
<path d="M1.76486 370.45C1.29423 370.45 0.870662 370.287 0.49416 369.96C0.16472 369.587 0 369.167 0 368.7V323.2C0 322.687 0.16472 322.267 0.49416 321.94C0.870662 321.613 1.29423 321.45 1.76486 321.45H21.5312C27.5553 321.45 32.2851 322.827 35.7207 325.58C39.2033 328.333 40.9447 332.347 40.9447 337.62C40.9447 342.847 39.2269 346.79 35.7913 349.45C32.3557 352.063 27.6023 353.37 21.5312 353.37H13.1305V368.7C13.1305 369.213 12.9423 369.633 12.5658 369.96C12.2363 370.287 11.8128 370.45 11.2951 370.45H1.76486ZM21.1783 343.71C23.249 343.71 24.8727 343.197 26.0493 342.17C27.2258 341.097 27.8141 339.533 27.8141 337.48C27.8141 335.567 27.2494 334.05 26.1199 332.93C25.0374 331.763 23.3902 331.18 21.1783 331.18H12.9187V343.71H21.1783Z" fill="#3C3A36"/>
<path d="M46.8591 328.8C46.3414 328.8 45.9179 328.637 45.5884 328.31C45.259 327.983 45.0943 327.563 45.0943 327.05V320.75C45.0943 320.237 45.259 319.817 45.5884 319.49C45.9179 319.163 46.3414 319 46.8591 319H55.3304C55.8481 319 56.2717 319.163 56.6011 319.49C56.9306 319.817 57.0953 320.237 57.0953 320.75V327.05C57.0953 327.563 56.9306 327.983 56.6011 328.31C56.2717 328.637 55.8481 328.8 55.3304 328.8H46.8591ZM46.9297 370.45C46.412 370.45 45.9885 370.287 45.659 369.96C45.3296 369.633 45.1649 369.213 45.1649 368.7V335.8C45.1649 335.287 45.3296 334.867 45.659 334.54C45.9885 334.213 46.412 334.05 46.9297 334.05H55.2598C55.7775 334.05 56.2011 334.213 56.5305 334.54C56.86 334.867 57.0247 335.287 57.0247 335.8V368.7C57.0247 369.167 56.86 369.587 56.5305 369.96C56.2011 370.287 55.7775 370.45 55.2598 370.45H46.9297Z" fill="#3C3A36"/>
<path d="M62.1169 370.45C61.6933 370.45 61.3168 370.31 60.9874 370.03C60.705 369.703 60.5638 369.307 60.5638 368.84C60.5638 368.467 60.6814 368.117 60.9168 367.79L72.706 351.76L61.9757 336.71C61.6933 336.337 61.5521 335.963 61.5521 335.59C61.5521 335.17 61.7168 334.82 62.0463 334.54C62.3757 334.213 62.7522 334.05 63.1758 334.05H71.7883C72.6354 334.05 73.3178 334.447 73.8355 335.24L80.4008 344.2L86.8954 335.31C87.1778 334.937 87.4602 334.633 87.7426 334.4C88.0249 334.167 88.4485 334.05 89.0133 334.05H97.2728C97.6963 334.05 98.0493 334.213 98.3317 334.54C98.6611 334.82 98.8259 335.17 98.8259 335.59C98.8259 336.057 98.7082 336.43 98.4729 336.71L87.4602 351.76L99.4612 367.79C99.6965 368.117 99.8142 368.467 99.8142 368.84C99.8142 369.307 99.6495 369.703 99.32 370.03C99.0376 370.31 98.6847 370.45 98.2611 370.45H89.225C88.425 370.45 87.7661 370.077 87.2484 369.33L80.1184 359.74L72.9178 369.33C72.6354 369.703 72.353 369.983 72.0706 370.17C71.7883 370.357 71.4118 370.45 70.9411 370.45H62.1169Z" fill="#3C3A36"/>
<path d="M118.9 371.15C113.252 371.15 108.805 369.633 105.558 366.6C102.31 363.567 100.616 359.157 100.475 353.37V350.92C100.663 345.413 102.381 341.12 105.628 338.04C108.923 334.913 113.323 333.35 118.829 333.35C122.83 333.35 126.195 334.167 128.924 335.8C131.701 337.387 133.772 339.58 135.137 342.38C136.549 345.18 137.255 348.4 137.255 352.04V353.72C137.255 354.187 137.09 354.607 136.76 354.98C136.431 355.307 136.007 355.47 135.49 355.47H112.899V355.96C112.994 358.153 113.535 359.927 114.523 361.28C115.511 362.633 116.947 363.31 118.829 363.31C120.006 363.31 120.971 363.077 121.724 362.61C122.477 362.097 123.159 361.49 123.771 360.79C124.195 360.277 124.524 359.973 124.759 359.88C125.042 359.74 125.465 359.67 126.03 359.67H134.784C135.207 359.67 135.56 359.81 135.843 360.09C136.172 360.323 136.337 360.65 136.337 361.07C136.337 362.283 135.631 363.683 134.219 365.27C132.854 366.857 130.854 368.233 128.218 369.4C125.583 370.567 122.477 371.15 118.9 371.15ZM124.83 348.54V348.4C124.83 346.113 124.289 344.317 123.206 343.01C122.171 341.657 120.712 340.98 118.829 340.98C116.994 340.98 115.535 341.657 114.453 343.01C113.417 344.317 112.899 346.113 112.899 348.4V348.54H124.83Z" fill="#3C3A36"/>
<path d="M143.873 370.45C143.402 370.45 142.979 370.287 142.602 369.96C142.273 369.587 142.108 369.167 142.108 368.7V322.5C142.108 321.987 142.273 321.567 142.602 321.24C142.979 320.913 143.402 320.75 143.873 320.75H152.203C152.721 320.75 153.144 320.913 153.474 321.24C153.803 321.567 153.968 321.987 153.968 322.5V368.7C153.968 369.213 153.803 369.633 153.474 369.96C153.144 370.287 152.721 370.45 152.203 370.45H143.873Z" fill="#3C3A36"/>
<path d="M192.804 375C192.145 375 191.604 374.837 191.18 374.51C190.804 374.23 190.451 373.857 190.121 373.39L187.721 370.24C185.933 370.847 183.838 371.15 181.438 371.15C174.802 371.15 169.578 369.54 165.766 366.32C162.001 363.1 160.001 358.363 159.766 352.11C159.719 350.757 159.695 348.75 159.695 346.09C159.695 343.383 159.719 341.353 159.766 340C159.954 333.84 161.978 329.103 165.837 325.79C169.743 322.43 174.944 320.75 181.438 320.75C187.933 320.75 193.133 322.43 197.04 325.79C200.946 329.103 202.993 333.84 203.181 340C203.275 342.707 203.322 344.737 203.322 346.09C203.322 347.397 203.275 349.403 203.181 352.11C202.993 357.85 201.299 362.33 198.098 365.55L203.252 372.83C203.393 373.11 203.464 373.343 203.464 373.53V373.67C203.464 374.043 203.322 374.347 203.04 374.58C202.758 374.86 202.428 375 202.052 375H192.804ZM181.438 361.07C184.027 361.07 186.074 360.3 187.58 358.76C189.133 357.22 189.957 354.863 190.051 351.69C190.145 348.983 190.192 347.07 190.192 345.95C190.192 344.737 190.145 342.823 190.051 340.21C189.957 337.037 189.133 334.68 187.58 333.14C186.074 331.6 184.027 330.83 181.438 330.83C178.897 330.83 176.85 331.6 175.297 333.14C173.79 334.68 172.99 337.037 172.896 340.21C172.849 341.517 172.826 343.43 172.826 345.95C172.826 348.423 172.849 350.337 172.896 351.69C172.99 354.863 173.79 357.22 175.297 358.76C176.803 360.3 178.85 361.07 181.438 361.07Z" fill="#3C3A36"/>
<path d="M222.518 371.15C218.376 371.15 215.035 369.773 212.494 367.02C209.952 364.22 208.682 360.323 208.682 355.33V335.8C208.682 335.287 208.846 334.867 209.176 334.54C209.505 334.213 209.929 334.05 210.446 334.05H219.271C219.788 334.05 220.212 334.213 220.541 334.54C220.918 334.867 221.106 335.287 221.106 335.8V354.91C221.106 359.483 223.153 361.77 227.248 361.77C229.224 361.77 230.778 361.163 231.907 359.95C233.037 358.737 233.601 357.057 233.601 354.91V335.8C233.601 335.287 233.766 334.867 234.095 334.54C234.472 334.213 234.895 334.05 235.366 334.05H244.19C244.708 334.05 245.132 334.213 245.461 334.54C245.791 334.867 245.955 335.287 245.955 335.8V368.7C245.955 369.167 245.791 369.587 245.461 369.96C245.132 370.287 244.708 370.45 244.19 370.45H236.001C235.531 370.45 235.107 370.287 234.731 369.96C234.401 369.587 234.237 369.167 234.237 368.7V366.04C231.789 369.447 227.883 371.15 222.518 371.15Z" fill="#3C3A36"/>
<path d="M254.188 328.8C253.671 328.8 253.247 328.637 252.918 328.31C252.588 327.983 252.423 327.563 252.423 327.05V320.75C252.423 320.237 252.588 319.817 252.918 319.49C253.247 319.163 253.671 319 254.188 319H262.66C263.177 319 263.601 319.163 263.93 319.49C264.26 319.817 264.424 320.237 264.424 320.75V327.05C264.424 327.563 264.26 327.983 263.93 328.31C263.601 328.637 263.177 328.8 262.66 328.8H254.188ZM254.259 370.45C253.741 370.45 253.318 370.287 252.988 369.96C252.659 369.633 252.494 369.213 252.494 368.7V335.8C252.494 335.287 252.659 334.867 252.988 334.54C253.318 334.213 253.741 334.05 254.259 334.05H262.589C263.107 334.05 263.53 334.213 263.86 334.54C264.189 334.867 264.354 335.287 264.354 335.8V368.7C264.354 369.167 264.189 369.587 263.86 369.96C263.53 370.287 263.107 370.45 262.589 370.45H254.259Z" fill="#3C3A36"/>
<path d="M271.211 370.45C270.74 370.45 270.317 370.287 269.94 369.96C269.611 369.587 269.446 369.167 269.446 368.7V363.24C269.446 362.4 269.823 361.607 270.576 360.86L287.095 343.08H271.846C271.329 343.08 270.881 342.917 270.505 342.59C270.176 342.263 270.011 341.843 270.011 341.33V335.8C270.011 335.287 270.176 334.867 270.505 334.54C270.881 334.213 271.329 334.05 271.846 334.05H300.225C300.743 334.05 301.166 334.213 301.496 334.54C301.825 334.867 301.99 335.287 301.99 335.8V341.75C301.99 342.403 301.661 343.103 301.002 343.85L284.906 361.42H301.637C302.155 361.42 302.578 361.583 302.908 361.91C303.284 362.237 303.472 362.657 303.472 363.17V368.7C303.472 369.213 303.284 369.633 302.908 369.96C302.578 370.287 302.155 370.45 301.637 370.45H271.211Z" fill="#3C3A36"/>
<path d="M308.466 370.45C307.995 370.45 307.572 370.287 307.195 369.96C306.866 369.587 306.701 369.167 306.701 368.7V363.24C306.701 362.4 307.078 361.607 307.831 360.86L324.35 343.08H309.101C308.584 343.08 308.137 342.917 307.76 342.59C307.431 342.263 307.266 341.843 307.266 341.33V335.8C307.266 335.287 307.431 334.867 307.76 334.54C308.137 334.213 308.584 334.05 309.101 334.05H337.48C337.998 334.05 338.421 334.213 338.751 334.54C339.08 334.867 339.245 335.287 339.245 335.8V341.75C339.245 342.403 338.916 343.103 338.257 343.85L322.161 361.42H338.892C339.41 361.42 339.833 361.583 340.163 361.91C340.539 362.237 340.727 362.657 340.727 363.17V368.7C340.727 369.213 340.539 369.633 340.163 369.96C339.833 370.287 339.41 370.45 338.892 370.45H308.466Z" fill="#3C3A36"/>
<path d="M362.036 371.15C356.389 371.15 351.941 369.633 348.694 366.6C345.447 363.567 343.753 359.157 343.611 353.37V350.92C343.8 345.413 345.517 341.12 348.765 338.04C352.059 334.913 356.459 333.35 361.966 333.35C365.966 333.35 369.331 334.167 372.061 335.8C374.838 337.387 376.908 339.58 378.273 342.38C379.685 345.18 380.391 348.4 380.391 352.04V353.72C380.391 354.187 380.226 354.607 379.897 354.98C379.567 355.307 379.144 355.47 378.626 355.47H356.036V355.96C356.13 358.153 356.671 359.927 357.66 361.28C358.648 362.633 360.083 363.31 361.966 363.31C363.142 363.31 364.107 363.077 364.86 362.61C365.613 362.097 366.296 361.49 366.907 360.79C367.331 360.277 367.66 359.973 367.896 359.88C368.178 359.74 368.602 359.67 369.166 359.67H377.92C378.344 359.67 378.697 359.81 378.979 360.09C379.309 360.323 379.473 360.65 379.473 361.07C379.473 362.283 378.767 363.683 377.355 365.27C375.991 366.857 373.99 368.233 371.355 369.4C368.719 370.567 365.613 371.15 362.036 371.15ZM367.966 348.54V348.4C367.966 346.113 367.425 344.317 366.343 343.01C365.307 341.657 363.848 340.98 361.966 340.98C360.13 340.98 358.671 341.657 357.589 343.01C356.554 344.317 356.036 346.113 356.036 348.4V348.54H367.966Z" fill="#3C3A36"/>
<path d="M400.351 371.15C396.539 371.15 393.339 370.613 390.751 369.54C388.209 368.467 386.327 367.183 385.103 365.69C383.879 364.197 383.268 362.867 383.268 361.7C383.268 361.233 383.432 360.86 383.762 360.58C384.138 360.253 384.538 360.09 384.962 360.09H393.01C393.292 360.09 393.551 360.207 393.786 360.44C394.351 360.813 394.775 361.117 395.057 361.35C396.092 362.097 396.986 362.657 397.739 363.03C398.54 363.357 399.504 363.52 400.634 363.52C401.999 363.52 403.105 363.263 403.952 362.75C404.846 362.19 405.293 361.42 405.293 360.44C405.293 359.647 405.058 359.017 404.587 358.55C404.164 358.083 403.316 357.64 402.046 357.22C400.775 356.753 398.845 356.263 396.257 355.75C392.351 354.957 389.339 353.673 387.221 351.9C385.15 350.08 384.115 347.653 384.115 344.62C384.115 342.707 384.727 340.887 385.95 339.16C387.174 337.433 388.986 336.033 391.386 334.96C393.833 333.887 396.728 333.35 400.069 333.35C403.411 333.35 406.328 333.863 408.823 334.89C411.317 335.917 413.2 337.177 414.47 338.67C415.788 340.117 416.447 341.447 416.447 342.66C416.447 343.08 416.282 343.453 415.953 343.78C415.67 344.107 415.317 344.27 414.894 344.27H407.552C407.176 344.27 406.823 344.153 406.493 343.92C405.881 343.593 405.34 343.243 404.87 342.87C404.069 342.263 403.316 341.797 402.61 341.47C401.905 341.143 401.034 340.98 399.999 340.98C398.775 340.98 397.787 341.26 397.034 341.82C396.328 342.38 395.975 343.103 395.975 343.99C395.975 344.69 396.163 345.273 396.539 345.74C396.963 346.207 397.81 346.673 399.081 347.14C400.398 347.56 402.328 348.003 404.87 348.47C409.435 349.263 412.753 350.663 414.823 352.67C416.941 354.677 418 357.033 418 359.74C418 363.193 416.447 365.97 413.341 368.07C410.235 370.123 405.905 371.15 400.351 371.15Z" fill="#3C3A36"/>
<g clip-path="url(#clip0_1_710)">
<path d="M304.004 238.179C328.461 214.216 343.642 180.822 343.642 143.878C343.642 70.9623 284.533 11.8529 211.617 11.8529C138.702 11.8529 79.5927 70.9623 79.5927 143.878C79.5927 160.47 82.6621 176.343 88.2497 190.971L304.004 238.179Z" fill="#49D88B"/>
<path d="M282.153 0H110.329C98.0114 0 88.0266 9.9853 88.0266 22.3028V190.384C91.9932 200.92 97.2731 210.813 103.659 219.869L288.647 251.096C294.261 247.055 299.55 242.591 304.455 237.739V22.3028C304.455 9.9853 294.47 0 282.153 0V0Z" fill="#167CC1"/>
<path d="M161.287 224.162C155.943 218.238 159.775 212.77 161.292 211.027C161.64 210.627 161.835 210.119 161.835 209.589V180.25C161.835 179.721 161.642 179.207 161.29 178.813C156.133 173.053 159.901 167.419 161.341 165.661C161.66 165.27 161.835 164.785 161.835 164.281V134.908C161.835 134.374 161.641 133.854 161.281 133.46C155.616 127.271 159.309 122.192 161.061 120.37C161.544 119.867 161.75 119.158 161.631 118.47L152.602 66.3637C152.527 65.9321 152.318 65.5355 152.014 65.2191C140.124 52.8315 147.398 40.6676 150.305 36.7931C150.81 36.12 150.929 35.2094 150.538 34.4641C149.842 33.1363 150.391 32.0257 150.86 31.4119C151.161 31.0175 151.341 30.5438 151.341 30.047V20.5272C151.341 20.0999 151.182 19.6952 150.932 19.3493C150.126 18.2381 150.304 17.1237 150.64 16.3294C150.962 15.5712 150.834 14.7004 150.305 14.0689C145.619 8.4662 148.24 3.61958 150.059 1.35848C150.38 0.959711 150.533 0.479037 150.534 0.000518821H110.328C98.0114 -2.00515e-05 88.0266 9.98528 88.0266 22.3028V190.384C91.9932 200.92 97.2731 210.813 103.659 219.869L161.835 229.689V225.603C161.835 225.072 161.642 224.556 161.287 224.162Z" fill="#0E62A8"/>
<path d="M165.695 120.644C141.614 91.3129 115.143 94.7779 103.223 98.5333V219.256C127.077 253.493 166.727 275.903 211.618 275.903C240.639 275.903 267.467 266.531 289.258 250.66C289.258 228.957 289.258 197.181 289.258 164.607C286.126 162.085 282.9 159.173 279.568 155.84C246.951 123.223 220.051 186.852 165.695 120.644Z" fill="#E9EFFF"/>
<path d="M161.716 256.12C161.795 255.89 161.835 255.653 161.835 255.41V225.603C161.835 225.072 161.643 224.556 161.287 224.162C155.943 218.238 159.775 212.77 161.292 211.027C161.64 210.627 161.835 210.119 161.835 209.589V180.25C161.835 179.721 161.643 179.207 161.29 178.813C156.133 173.053 159.901 167.419 161.341 165.661C161.66 165.271 161.835 164.785 161.835 164.281V134.908C161.835 134.374 161.641 133.854 161.281 133.46C155.616 127.271 159.309 122.192 161.061 120.37C161.544 119.867 161.75 119.158 161.631 118.47L161.112 115.477C138.331 91.7516 114.39 95.0145 103.223 98.5333V219.256C118.068 240.564 139.033 257.288 163.571 266.883C160.044 262.088 161.29 257.366 161.716 256.12Z" fill="#D3DCFB"/>
<path d="M165.695 121.771C220.05 187.978 246.95 124.349 279.568 156.966C282.9 160.299 286.126 163.211 289.258 165.733V34.3978H103.224V99.6596C115.143 95.9036 141.614 92.4387 165.695 121.771Z" fill="#9BD8F9"/>
<path d="M103.224 99.6596C114.43 96.1283 138.499 92.8579 161.352 116.855L152.603 66.3637C152.528 65.9321 152.319 65.5355 152.016 65.2192C140.125 52.8316 147.399 40.6676 150.306 36.7931C150.811 36.1201 150.93 35.2094 150.539 34.4641C150.527 34.4415 150.522 34.4199 150.511 34.3978H103.224V99.6596Z" fill="#73C3F9"/>
<path d="M255.639 119.648H134.651C131.799 119.648 129.466 117.315 129.466 114.463V70.8212C129.466 67.9695 131.799 65.6362 134.651 65.6362H255.639C258.49 65.6362 260.824 67.9695 260.824 70.8212V114.463C260.824 117.315 258.49 119.648 255.639 119.648Z" fill="#4FABF7"/>
<path d="M171.857 109.731V75.5525C171.857 70.098 176.319 65.6356 181.774 65.6356H134.651C131.799 65.6356 129.466 67.9689 129.466 70.8206V114.463C129.466 117.315 131.799 119.648 134.651 119.648H181.774C176.319 119.648 171.857 115.185 171.857 109.731Z" fill="#1E9EF4"/>
<path d="M282.153 15.1971H110.329C106.421 15.1971 103.223 18.3948 103.223 22.3032V35.5239H289.258V22.3027C289.258 18.3948 286.061 15.1971 282.153 15.1971Z" fill="#2A428C"/>
<path d="M150.539 34.4645C149.843 33.1367 150.392 32.0261 150.861 31.4123C151.162 31.0179 151.342 30.5442 151.342 30.0474V20.5271C151.342 20.0998 151.184 19.6951 150.933 19.3491C150.127 18.238 150.305 17.1236 150.641 16.3293C150.796 15.965 150.844 15.5749 150.796 15.1971H110.329C106.422 15.1971 103.223 18.3948 103.223 22.3032V35.5239H150.763C150.78 35.1613 150.713 34.7965 150.539 34.4645Z" fill="#1C2E7A"/>
<path d="M126.271 25.3604C126.271 28.4174 123.793 30.8951 120.736 30.8951C117.679 30.8951 115.201 28.4169 115.201 25.3604C115.201 22.3039 117.68 19.8256 120.736 19.8256C123.793 19.8256 126.271 22.3034 126.271 25.3604Z" fill="#FF4155"/>
<path d="M141.574 25.3604C141.574 28.4174 139.096 30.8951 136.039 30.8951C132.983 30.8951 130.504 28.4169 130.504 25.3604C130.504 22.3039 132.983 19.8256 136.039 19.8256C139.096 19.8256 141.574 22.3034 141.574 25.3604Z" fill="#FFDD40"/>
<path d="M156.877 25.3604C156.877 28.4174 154.399 30.8951 151.342 30.8951C148.285 30.8951 145.807 28.4169 145.807 25.3604C145.807 22.3039 148.285 19.8256 151.342 19.8256C154.398 19.8256 156.877 22.3034 156.877 25.3604Z" fill="#38C674"/>
<path d="M230.588 29.5819H175.052C172.721 29.5819 170.831 27.6921 170.831 25.3604C170.831 23.0287 172.721 21.1389 175.052 21.1389H230.588C232.92 21.1389 234.809 23.0287 234.809 25.3604C234.81 27.6921 232.92 29.5819 230.588 29.5819Z" fill="#3C58A0"/>
<path d="M212.686 109.041C210.354 109.041 208.465 107.151 208.465 104.82V80.4633C208.465 78.1316 210.354 76.2418 212.686 76.2418C215.018 76.2418 216.908 78.1316 216.908 80.4633V104.82C216.908 107.151 215.018 109.041 212.686 109.041Z" fill="#E9EFFF"/>
<path d="M240.632 109.041H224.383C222.835 109.041 221.41 108.193 220.672 106.831C219.934 105.469 220.001 103.813 220.847 102.515L232.465 84.6848H224.883C222.552 84.6848 220.662 82.795 220.662 80.4633C220.662 78.1316 222.552 76.2418 224.883 76.2418H240.254C243.602 76.2418 245.618 79.9648 243.791 82.768L232.173 100.598H240.632C242.963 100.598 244.854 102.488 244.854 104.82C244.854 107.151 242.963 109.041 240.632 109.041Z" fill="#E9EFFF"/>
<path d="M192.288 109.041C192.281 109.041 192.274 109.041 192.268 109.041C186.03 109.034 179.742 104.252 179.742 97.2233V80.4633C179.742 78.1316 181.632 76.2418 183.963 76.2418C186.295 76.2418 188.185 78.1316 188.185 80.4633V97.2233C188.185 98.0763 188.326 98.8722 190.057 99.978C190.708 100.394 191.435 100.597 192.278 100.598H192.287C194.281 100.598 196.666 99.2764 196.666 97.2055V80.4628C196.666 78.1311 198.556 76.2412 200.887 76.2412C203.219 76.2412 205.109 78.1311 205.109 80.4628V97.2055C205.109 104.285 198.713 109.041 192.288 109.041Z" fill="#E9EFFF"/>
<path d="M171.122 107.706L163.33 99.9149C161.681 98.2665 161.681 95.5931 163.33 93.9447C164.979 92.2958 167.652 92.2963 169.3 93.9442L177.093 101.736C178.741 103.384 178.741 106.058 177.093 107.706C175.445 109.355 172.772 109.355 171.122 107.706Z" fill="#E9EFFF"/>
<path d="M161.835 109.043C152.793 109.043 145.436 101.686 145.436 92.6433C145.436 83.5999 152.793 76.2433 161.835 76.2433C170.878 76.2433 178.235 83.5999 178.235 92.6433C178.235 101.686 170.878 109.043 161.835 109.043ZM161.835 84.6863C157.448 84.6863 153.879 88.2558 153.879 92.6433C153.879 97.0308 157.448 100.6 161.835 100.6C166.223 100.6 169.792 97.0308 169.792 92.6433C169.792 88.2558 166.223 84.6863 161.835 84.6863Z" fill="#E9EFFF"/>
<path d="M334.143 89.7185C354.661 69.2001 354.661 35.9331 334.143 15.4147C313.625 -5.10374 280.358 -5.10373 259.839 15.4147C239.321 35.9331 239.321 69.2001 259.839 89.7185C280.358 110.237 313.625 110.237 334.143 89.7185Z" fill="#FFDD40"/>
<path d="M244.472 52.5485C244.472 81.57 267.999 105.097 297.021 105.097C310.587 105.097 322.951 99.9558 332.274 91.516C332.038 91.1991 331.715 90.9475 331.326 90.8106C328.582 89.8433 328.076 87.4594 328.098 85.7495C328.111 84.738 327.367 83.8591 326.37 83.691C322.356 83.0147 321.464 80.246 321.335 78.3664C321.267 77.3609 320.445 76.5736 319.441 76.4863C308.944 75.5767 307.286 67.4451 307.043 64.2237C306.982 63.4138 306.46 62.716 305.698 62.4336C302.893 61.3936 296.232 58.8964 292.086 57.1252C287.881 55.328 288.681 46.1499 289.22 42.2798C289.355 41.3179 288.779 40.4228 287.866 40.0903C279.813 37.1546 281.622 27.0917 282.768 22.9105C283.03 21.953 282.591 20.928 281.694 20.5029C278.398 18.9407 278.557 15.7096 279.058 13.6694C279.291 12.7221 278.842 11.7564 277.977 11.3043C275.738 10.1328 275.509 7.66908 275.641 6.02875C275.68 5.54269 275.538 5.07818 275.27 4.70151C257.102 12.9727 244.472 31.2852 244.472 52.5485Z" fill="#FFB332"/>
<path d="M324.779 80.3544C340.126 65.0076 340.126 40.1256 324.779 24.7789C309.432 9.43214 284.55 9.43215 269.203 24.7789C253.857 40.1256 253.857 65.0076 269.203 80.3544C284.55 95.7011 309.432 95.7011 324.779 80.3544Z" fill="#E9EFFF"/>
<path d="M322.931 82.0885C321.774 80.9611 321.412 79.5024 321.335 78.3665C321.266 77.3609 320.444 76.5736 319.44 76.4863C308.944 75.5767 307.286 67.4451 307.043 64.2238C306.982 63.4138 306.46 62.716 305.698 62.4336C302.892 61.3936 296.231 58.8965 292.086 57.1252C287.881 55.3281 288.681 46.15 289.22 42.2798C289.354 41.3179 288.778 40.4229 287.865 40.0904C279.813 37.1546 281.621 27.0917 282.767 22.9106C283.03 21.953 282.591 20.9281 281.693 20.5029C280.192 19.791 279.412 18.7322 279.05 17.5978C266.385 24.1236 257.717 37.32 257.717 52.5491C257.717 74.2559 275.314 91.8528 297.02 91.8528C306.95 91.8523 316.013 88.1621 322.931 82.0885Z" fill="#D3DCFB"/>
<path d="M305.108 52.5487H336.324C336.324 30.8418 318.727 13.245 297.02 13.245V44.4613C301.353 44.7604 304.808 48.2156 305.108 52.5487Z" fill="#FF4155"/>
<path d="M257.952 146.698L246.482 135.228C245.721 134.466 244.688 134.039 243.61 134.039H160.71V165.102H243.61C244.687 165.102 245.72 164.674 246.481 163.912L257.951 152.443C259.538 150.856 259.538 148.285 257.952 146.698Z" fill="#D3DCFB"/>
<path d="M257.952 192.049L246.482 180.579C245.721 179.817 244.688 179.389 243.61 179.389H160.71V210.452H243.61C244.687 210.452 245.72 210.024 246.481 209.263L257.951 197.793C259.538 196.206 259.538 193.635 257.952 192.049Z" fill="#D3DCFB"/>
<path d="M257.952 237.398L246.482 225.929C245.721 225.167 244.688 224.739 243.61 224.739H160.71V255.802H243.61C244.687 255.802 245.72 255.374 246.481 254.613L257.951 243.143C259.538 241.556 259.538 238.984 257.952 237.398Z" fill="#D3DCFB"/>
<path d="M189.941 149.57C189.941 140.992 196.895 134.038 205.473 134.038H160.71V165.101H205.473C196.895 165.101 189.941 158.148 189.941 149.57Z" fill="#BEC8F7"/>
<path d="M189.941 194.92C189.941 186.343 196.895 179.389 205.473 179.389H160.71V210.451H205.473C196.895 210.451 189.941 203.498 189.941 194.92Z" fill="#BEC8F7"/>
<path d="M189.941 240.27C189.941 231.692 196.895 224.739 205.473 224.739H160.71V255.801H205.473C196.895 255.801 189.941 248.848 189.941 240.27Z" fill="#BEC8F7"/>
<path d="M130.504 228.8V248.048C134.053 250.816 137.749 253.402 141.576 255.802H161.835V224.739H134.565C132.322 224.739 130.504 226.557 130.504 228.8Z" fill="#38C674"/>
<path d="M161.835 179.389H134.565C132.322 179.389 130.504 181.207 130.504 183.45V206.39C130.504 208.633 132.322 210.451 134.565 210.451H161.835V179.389Z" fill="#FFDD40"/>
<path d="M161.835 134.039H134.565C132.322 134.039 130.504 135.857 130.504 138.1V161.04C130.504 163.283 132.322 165.101 134.565 165.101H161.835V134.039Z" fill="#FF4155"/>
<path d="M297.021 96.7873C272.628 96.7873 252.782 76.9423 252.782 52.5486C252.782 28.1549 272.628 8.30989 297.021 8.30989C321.414 8.30989 341.259 28.1549 341.259 52.5486C341.259 76.9423 321.414 96.7873 297.021 96.7873ZM297.021 18.1799C278.07 18.1799 262.652 33.5976 262.652 52.5481C262.652 71.4986 278.07 86.9163 297.021 86.9163C315.972 86.9163 331.389 71.4986 331.389 52.5481C331.389 33.5976 315.971 18.1799 297.021 18.1799Z" fill="#FFB332"/>
<path d="M327.636 84.4369C327.325 84.0533 326.882 83.7774 326.369 83.6906C322.356 83.0143 321.463 80.2456 321.335 78.366C321.305 77.9408 321.136 77.5593 320.881 77.2489C314.695 83.2272 306.283 86.9168 297.02 86.9168C278.07 86.9168 262.652 71.4991 262.652 52.5486C262.652 38.7503 270.83 26.8326 282.59 21.3679C282.393 21.0014 282.092 20.691 281.694 20.5024C278.397 18.9402 278.556 15.7092 279.057 13.669C279.182 13.1619 279.106 12.6521 278.881 12.2162C263.511 19.1563 252.781 34.6182 252.781 52.5492C252.781 76.9428 272.627 96.7879 297.02 96.7879C308.894 96.7873 319.681 92.0765 327.636 84.4369Z" fill="#FF9100"/>
<path d="M297.021 66.8164C289.153 66.8164 282.753 60.4162 282.753 52.5487C282.753 44.6811 289.154 38.2809 297.021 38.2809C304.888 38.2809 311.288 44.6811 311.288 52.5487C311.288 60.4162 304.888 66.8164 297.021 66.8164ZM297.021 48.1515C294.596 48.1515 292.623 50.1243 292.623 52.5487C292.623 54.9731 294.596 56.9459 297.021 56.9459C299.446 56.9459 301.418 54.9731 301.418 52.5487C301.418 50.1243 299.445 48.1515 297.021 48.1515Z" fill="#3C58A0"/>
<path d="M297.021 48.1515C294.295 48.1515 292.086 45.9421 292.086 43.2165V28.5888C292.086 25.8632 294.295 23.6538 297.021 23.6538C299.746 23.6538 301.956 25.8632 301.956 28.5888V43.2165C301.956 45.9421 299.746 48.1515 297.021 48.1515Z" fill="#3C58A0"/>
</g>
<defs>
<clipPath id="clip0_1_710">
<rect width="275.903" height="275.903" fill="white" transform="translate(76.6295)"/>
</clipPath>
</defs>
</svg>
