<svg width="24" height="24" viewBox="0 0 24 24" fill="none" xmlns="http://www.w3.org/2000/svg">
<g clip-path="url(#clip0_1_194)">
<path d="M14.8281 9.17164C14.6331 8.97664 14.3161 8.97664 14.1211 9.17164C13.9261 9.36664 13.9261 9.68464 14.1211 9.87866C14.6871 10.4447 15.0001 11.1977 15.0001 11.9997C15.0001 13.6536 13.654 14.9997 12.0001 14.9997C11.1981 14.9997 10.4451 14.6877 9.87905 14.1207C9.68405 13.9257 9.36704 13.9257 9.17204 14.1207C8.97704 14.3147 8.97704 14.6327 9.17204 14.8277C9.92602 15.5837 10.931 15.9997 12.0001 15.9997C14.206 15.9997 16 14.2057 16 11.9997C16 10.9306 15.5841 9.92563 14.8281 9.17164Z" fill="#3C3A36"/>
<path d="M12.6971 8.06851C12.47 8.02853 12.2381 7.99951 12.0001 7.99951C9.79409 7.99951 8.00009 9.79351 8.00009 11.9995C8.00009 12.2375 8.02911 12.4695 8.07008 12.6965C8.11306 12.9385 8.32409 13.1095 8.56109 13.1095C8.59011 13.1095 8.61908 13.1075 8.64908 13.1015C8.92006 13.0535 9.10208 12.7935 9.05408 12.5225C9.02309 12.3525 9.00008 12.1795 9.00008 11.9995C9.00008 10.3455 10.3461 8.99949 12.0001 8.99949C12.1801 8.99949 12.3531 9.02251 12.5231 9.05251C12.7891 9.10651 13.0541 8.91849 13.1021 8.64751C13.1501 8.37653 12.9681 8.11651 12.6971 8.06851Z" fill="#3C3A36"/>
<path d="M23.881 11.6768C23.768 11.5427 21.063 8.38576 17.332 6.45278C17.09 6.3258 16.785 6.4218 16.658 6.66779C16.531 6.91281 16.627 7.21478 16.873 7.34181C19.747 8.82981 22.043 11.1518 22.828 11.9998C21.636 13.2908 16.945 17.9998 12 17.9998C10.322 17.9998 8.63102 17.5948 6.97202 16.7948C6.72602 16.6738 6.42504 16.7788 6.30504 17.0278C6.18405 17.2758 6.28905 17.5748 6.53805 17.6948C8.33303 18.5618 10.171 18.9998 12.0001 18.9998C18.1611 18.9998 23.6511 12.5958 23.8821 12.3228C24.04 12.1367 24.039 11.8637 23.881 11.6768Z" fill="#3C3A36"/>
<path d="M15.281 5.57551C14.143 5.1925 13.039 4.99951 12 4.99951C5.83901 4.99951 0.349021 11.4035 0.118022 11.6765C-0.0279937 11.8485 -0.0399937 12.0985 0.0900373 12.2855C0.159037 12.3845 1.81203 14.7315 4.67703 16.6345C4.76201 16.6915 4.85703 16.7185 4.95303 16.7185C5.11404 16.7185 5.27304 16.6405 5.36904 16.4935C5.52204 16.2645 5.45904 15.9535 5.22903 15.8015C3.12505 14.4025 1.68505 12.7135 1.14604 12.0265C2.29705 10.7765 7.01904 5.99954 12 5.99954C12.931 5.99954 13.928 6.17556 14.962 6.52252C15.224 6.61651 15.508 6.47152 15.595 6.20851C15.683 5.94653 15.543 5.66354 15.281 5.57551Z" fill="#3C3A36"/>
</g>
<defs>
<clipPath id="clip0_1_194">
<rect width="24" height="24" fill="white"/>
</clipPath>
</defs>
</svg>
